<svg xmlns="http://www.w3.org/2000/svg" width="5446" height="995" viewBox="0 0 5446 995">
  <g id="Group_58" data-name="Group 58" transform="translate(-94 -166)">
    <rect id="Rectangle_133" data-name="Rectangle 133" width="5446" height="995" transform="translate(94 166)" fill="none"/>
    <g id="Rectangle_126" data-name="Rectangle 126" transform="translate(254 499)" fill="#d9e3ed" stroke="#a9b7c6" stroke-width="10">
      <rect width="896" height="284" rx="68" stroke="none"/>
      <rect x="5" y="5" width="886" height="274" rx="63" fill="none"/>
    </g>
    <g id="Rectangle_127" data-name="Rectangle 127" transform="translate(1363 499)" fill="#d9e3ed" stroke="#a9b7c6" stroke-width="10">
      <rect width="1245" height="284" rx="68" stroke="none"/>
      <rect x="5" y="5" width="1235" height="274" rx="63" fill="none"/>
    </g>
    <g id="Rectangle_128" data-name="Rectangle 128" transform="translate(2857 499)" fill="#d9e3ed" stroke="#a9b7c6" stroke-width="10">
      <rect width="907" height="284" rx="68" stroke="none"/>
      <rect x="5" y="5" width="897" height="274" rx="63" fill="none"/>
    </g>
    <g id="Rectangle_129" data-name="Rectangle 129" transform="translate(4043.26 499)" fill="#d9e3ed" stroke="#a9b7c6" stroke-width="10">
      <rect width="805" height="284" rx="68" stroke="none"/>
      <rect x="5" y="5" width="795" height="274" rx="63" fill="none"/>
    </g>
    <text id="Message" transform="translate(472 683)" fill="#4b4b4b" font-size="110" font-family="HelveticaNeue-Medium, Helvetica Neue" font-weight="500"><tspan x="0" y="0">Message</tspan></text>
    <text id="Ciphertext_Check_" data-name="Ciphertext Check " transform="translate(1528 683)" fill="#4b4b4b" font-size="110" font-family="HelveticaNeue-Medium, Helvetica Neue" font-weight="500"><tspan x="0" y="0">Ciphertext Check </tspan></text>
    <text id="Decrypt" transform="translate(3109 683)" fill="#4b4b4b" font-size="110" font-family="HelveticaNeue-Medium, Helvetica Neue" font-weight="500"><tspan x="0" y="0">Decrypt</tspan></text>
    <text id="Next" transform="translate(4327.76 682.5)" fill="#4b4b4b" font-size="110" font-family="HelveticaNeue-Medium, Helvetica Neue" font-weight="500"><tspan x="0" y="0">Next</tspan></text>
    <path id="Path_119" data-name="Path 119" d="M-8664,1346.813v213.26" transform="translate(-196.813 -8011.705) rotate(-90)" fill="none" stroke="#a8a8a8" stroke-width="7" stroke-dasharray="26"/>
    <path id="Path_123" data-name="Path 123" d="M-8664,1346.813v213.26" transform="translate(1261.188 -8011.705) rotate(-90)" fill="none" stroke="#a8a8a8" stroke-width="7" stroke-dasharray="26"/>
    <path id="Path_124" data-name="Path 124" d="M-8664,1346.813v213.26" transform="translate(2447.447 -8013.76) rotate(-90)" fill="none" stroke="#a8a8a8" stroke-width="7" stroke-dasharray="26"/>
    <g id="Polygon_2" data-name="Polygon 2" transform="translate(1257.34 631.055) rotate(-30)" fill="#a8a8a8">
      <path d="M 77.13683319091797 67.5 L 0.8631658554077148 67.5 L 39 1.005007147789001 L 77.13683319091797 67.5 Z" stroke="none"/>
      <path d="M 39 2.009994506835938 L 1.726325988769531 67 L 76.273681640625 67 L 39 2.009994506835938 M 39 0 L 78 68 L 0 68 L 39 0 Z" stroke="none" fill="#707070"/>
    </g>
    <g id="Polygon_5" data-name="Polygon 5" transform="translate(2715.34 631.055) rotate(-30)" fill="#a8a8a8">
      <path d="M 77.13683319091797 67.5 L 0.8631658554077148 67.5 L 39 1.005007147789001 L 77.13683319091797 67.5 Z" stroke="none"/>
      <path d="M 39 2.009994506835938 L 1.726325988769531 67 L 76.273681640625 67 L 39 2.009994506835938 M 39 0 L 78 68 L 0 68 L 39 0 Z" stroke="none" fill="#707070"/>
    </g>
    <g id="Polygon_6" data-name="Polygon 6" transform="translate(3901.6 629) rotate(-30)" fill="#a8a8a8">
      <path d="M 77.13683319091797 67.5 L 0.8631658554077148 67.5 L 39 1.005007147789001 L 77.13683319091797 67.5 Z" stroke="none"/>
      <path d="M 39 2.009994506835938 L 1.726325988769531 67 L 76.273681640625 67 L 39 2.009994506835938 M 39 0 L 78 68 L 0 68 L 39 0 Z" stroke="none" fill="#707070"/>
    </g>
  </g>
</svg>
