<svg xmlns="http://www.w3.org/2000/svg" width="956" height="812.997" viewBox="0 0 956 812.997">
  <g id="Group_19" data-name="Group 19" transform="translate(-2009 -330.003)">
    <rect id="Rectangle_59" data-name="Rectangle 59" width="956" height="769" transform="translate(2009 374)" fill="none" opacity="0.365"/>
    <path id="Path_65" data-name="Path 65" d="M52.9,0h99.6l55.226,99.361-54.074,97.577h-99.6L0,99.361Z" transform="translate(2321.175 873.262)" fill="none" stroke="#939393" stroke-width="3" opacity="0.365"/>
    <path id="Path_72" data-name="Path 72" d="M52.9,0h99.6l55.226,99.361-54.074,97.577h-99.6L0,99.361Z" transform="translate(2660.033 652.376)" fill="none" stroke="#939393" stroke-width="3" opacity="0.365"/>
    <path id="Path_70" data-name="Path 70" d="M52.9,0h99.6l55.226,99.361-54.074,97.577h-99.6L0,99.361Z" transform="translate(2486.59 758.478)" fill="none" stroke="#939393" stroke-width="3" opacity="0.365"/>
    <path id="Path_71" data-name="Path 71" d="M52.9,0h99.6l55.226,99.361-54.074,97.577h-99.6L0,99.361Z" transform="translate(2312.56 436.365)" fill="none" stroke="#939393" stroke-width="3" opacity="0.365"/>
    <path id="Path_74" data-name="Path 74" d="M52.9,0h99.6l55.226,99.361-54.074,97.577h-99.6L0,99.361Z" transform="translate(2484.563 544.441)" fill="none" stroke="#939393" stroke-width="3" opacity="0.365"/>
    <path id="Path_75" data-name="Path 75" d="M52.9,0h99.6l55.226,99.361-54.074,97.577h-99.6L0,99.361Z" transform="translate(2139.572 544.441)" fill="none" stroke="#939393" stroke-width="3" opacity="0.365"/>
    <path id="Path_67" data-name="Path 67" d="M52.9,0h99.6l55.226,99.361-54.074,97.577h-99.6L0,99.361Z" transform="translate(2312.56 654.009)" fill="none" stroke="#939393" stroke-width="3" opacity="0.365"/>
    <path id="Path_77" data-name="Path 77" d="M52.9,0h99.6l55.226,99.361-54.074,97.577h-99.6L0,99.361Z" transform="translate(2139.572 331.503)" fill="none" stroke="#939393" stroke-width="3" opacity="0.365"/>
  </g>
</svg>
