<svg xmlns="http://www.w3.org/2000/svg" width="602.809" height="577.983" viewBox="0 0 602.809 577.983">
  <g id="Group_22" data-name="Group 22" transform="translate(-512.121 -3796.508)">
    <path id="Path_65" data-name="Path 65" d="M25.455,0H73.382L99.955,47.81,73.937,94.761H26.01L0,47.81Z" transform="translate(601.209 4278.23)" fill="none" stroke="#e4f0eb" stroke-width="3" opacity="0.098"/>
    <path id="Path_78" data-name="Path 78" d="M25.455,0H73.382L99.955,47.81,73.937,94.761H26.01L0,47.81Z" transform="translate(850.064 4224)" fill="none" stroke="#a37aa2" stroke-width="3" opacity="0.086"/>
    <path id="Path_72" data-name="Path 72" d="M25.455,0H73.382L99.955,47.81,73.937,94.761H26.01L0,47.81Z" transform="translate(764.259 4171.947)" fill="none" stroke="#a37aa2" stroke-width="3" opacity="0.086"/>
    <path id="Path_79" data-name="Path 79" d="M25.455,0H73.382L99.955,47.81,73.937,94.761H26.01L0,47.81Z" transform="translate(1013.259 4118.947)" fill="none" stroke="#a37aa2" stroke-width="3" opacity="0.086"/>
    <path id="Path_70" data-name="Path 70" d="M25.455,0H73.382L99.955,47.81,73.937,94.761H26.01L0,47.81Z" transform="translate(680.803 4223)" fill="none" stroke="#e4f0eb" stroke-width="3" opacity="0.098"/>
    <path id="Path_80" data-name="Path 80" d="M25.455,0H73.382L99.955,47.81,73.937,94.761H26.01L0,47.81Z" transform="translate(931.803 4171)" fill="none" stroke="#a37aa2" stroke-width="3" opacity="0.086"/>
    <path id="Path_71" data-name="Path 71" d="M25.455,0H73.382L99.955,47.81,73.937,94.761H26.01L0,47.81Z" transform="translate(597.064 4068.008)" fill="none" stroke="#e4f0eb" stroke-width="3" opacity="0.098"/>
    <path id="Path_82" data-name="Path 82" d="M25.455,0H73.382L99.955,47.81,73.937,94.761H26.01L0,47.81Z" transform="translate(847.064 4011.008)" fill="none" stroke="#a37aa2" stroke-width="3" opacity="0.086"/>
    <path id="Path_74" data-name="Path 74" d="M25.455,0H73.382L99.955,47.81,73.937,94.761H26.01L0,47.81Z" transform="translate(679.828 4120.011)" fill="none" stroke="#e4f0eb" stroke-width="3" opacity="0.048"/>
    <path id="Path_83" data-name="Path 83" d="M25.455,0H73.382L99.955,47.81,73.937,94.761H26.01L0,47.81Z" transform="translate(930.828 4065.011)" fill="none" stroke="#a37aa2" stroke-width="3" opacity="0.086"/>
    <path id="Path_75" data-name="Path 75" d="M25.455,0H73.382L99.955,47.81,73.937,94.761H26.01L0,47.81Z" transform="translate(513.828 4120.011)" fill="none" stroke="#e4f0eb" stroke-width="3" opacity="0.098"/>
    <path id="Path_84" data-name="Path 84" d="M25.455,0H73.382L99.955,47.81,73.937,94.761H26.01L0,47.81Z" transform="translate(761.828 4065.011)" fill="none" stroke="#a37aa2" stroke-width="3" opacity="0.086"/>
    <path id="Path_67" data-name="Path 67" d="M25.455,0H73.382L99.955,47.81,73.937,94.761H26.01L0,47.81Z" transform="translate(597.064 4172.732)" fill="none" stroke="#e4f0eb" stroke-width="3" opacity="0.098"/>
    <path id="Path_81" data-name="Path 81" d="M25.455,0H73.382L99.955,47.81,73.937,94.761H26.01L0,47.81Z" transform="translate(847.064 4117.732)" fill="none" stroke="#a37aa2" stroke-width="3" opacity="0.086"/>
    <path id="Path_85" data-name="Path 85" d="M25.455,0H73.382L99.955,47.81,73.937,94.761H26.01L0,47.81Z" transform="translate(678.209 4010.23)" fill="none" stroke="#939393" stroke-width="3" opacity="0.041"/>
    <path id="Path_86" data-name="Path 86" d="M25.455,0H73.382L99.955,47.81,73.937,94.761H26.01L0,47.81Z" transform="translate(842.259 3905.947)" fill="none" stroke="#939393" stroke-width="3" opacity="0.041"/>
    <path id="Path_87" data-name="Path 87" d="M25.455,0H73.382L99.955,47.81,73.937,94.761H26.01L0,47.81Z" transform="translate(1013.259 4010.23)" fill="none" stroke="#939393" stroke-width="3" opacity="0.041"/>
    <path id="Path_88" data-name="Path 88" d="M25.455,0H73.382L99.955,47.81,73.937,94.761H26.01L0,47.81Z" transform="translate(673.064 3798.008)" fill="none" stroke="#939393" stroke-width="3" opacity="0.041"/>
    <path id="Path_89" data-name="Path 89" d="M25.455,0H73.382L99.955,47.81,73.937,94.761H26.01L0,47.81Z" transform="translate(757.828 3854.011)" fill="none" stroke="#939393" stroke-width="3" opacity="0.041"/>
    <path id="Path_92" data-name="Path 92" d="M25.455,0H73.382L99.955,47.81,73.937,94.761H26.01L0,47.81Z" transform="translate(765.259 4274.223)" fill="none" stroke="#939393" stroke-width="3" opacity="0.041"/>
    <path id="Path_90" data-name="Path 90" d="M25.455,0H73.382L99.955,47.81,73.937,94.761H26.01L0,47.81Z" transform="translate(590.828 3852.011)" fill="none" stroke="#939393" stroke-width="3" opacity="0.041"/>
    <path id="Path_91" data-name="Path 91" d="M25.455,0H73.382L99.955,47.81,73.937,94.761H26.01L0,47.81Z" transform="translate(674.064 3905.732)" fill="none" stroke="#939393" stroke-width="3" opacity="0.041"/>
  </g>
</svg>
