<svg xmlns="http://www.w3.org/2000/svg" width="460" height="370" viewBox="0 0 460 370">
  <g id="Group_25" data-name="Group 25" transform="translate(-1957 -3361)">
    <rect id="Rectangle_61" data-name="Rectangle 61" width="460" height="370" transform="translate(1957 3361)" fill="none"/>
    <g id="Subtraction_41" data-name="Subtraction 41" transform="translate(5578.818 3384.986)" fill="none" stroke-linecap="round" stroke-linejoin="round">
      <path d="M-3258.645,261.076h-202.917V157.207a12.419,12.419,0,0,0-3.661-8.839,12.418,12.418,0,0,0-8.839-3.661h-51.691V53.452a8.51,8.51,0,0,1,8.5-8.5h171.76a57.589,57.589,0,0,0-2.816,10.7,3.225,3.225,0,0,0-.98-.074,27.306,27.306,0,0,0-10.523,2.329,20.557,20.557,0,0,0-6.263,4.312,19.267,19.267,0,0,0-4.556,7.655,28.035,28.035,0,0,0-1.573,12.5A29.92,29.92,0,0,0-3370.869,89a23.63,23.63,0,0,0,2.883,5.981,17.361,17.361,0,0,0,5.905,5.505,17.573,17.573,0,0,0,8.656,2.127l.268,0c4.716.2,18.042.3,39.607.3,21.376,0,46.769-.1,63.405-.2V252.576A8.51,8.51,0,0,1-3258.645,261.076Z" stroke="none"/>
      <path d="M -3258.64453125 254.0756072998047 C -3257.817138671875 254.0756072998047 -3257.14404296875 253.4029083251953 -3257.14404296875 252.5760345458984 L -3257.14404296875 109.7523956298828 C -3273.406005859375 109.8357925415039 -3294.98974609375 109.9132385253906 -3313.549072265625 109.9132385253906 C -3335.2119140625 109.9132385253906 -3348.63720703125 109.8099899291992 -3353.424560546875 109.6142349243164 C -3357.839111328125 109.6142349243164 -3361.897216796875 108.601318359375 -3365.485595703125 106.6037826538086 C -3368.755859375 104.783447265625 -3371.544677734375 102.1977767944336 -3373.7744140625 98.9188232421875 C -3375.336181640625 96.62220001220703 -3376.59814453125 94.01502990722656 -3377.524658203125 91.17040252685547 C -3378.37060546875 88.57444763183594 -3378.926513671875 85.82015228271484 -3379.176513671875 82.98381805419922 C -3379.666259765625 77.43015289306641 -3378.943359375 71.85990142822266 -3377.29248046875 67.72286224365234 C -3375.997802734375 63.71052932739258 -3373.90625 60.21052932739258 -3371.076171875 57.32027816772461 C -3368.961669921875 55.16051864624023 -3366.448486328125 53.35773468017578 -3363.595703125 51.95232009887695 L -3517.252197265625 51.95232009887695 C -3518.07958984375 51.95232009887695 -3518.752685546875 52.62503051757812 -3518.752685546875 53.451904296875 L -3518.752685546875 137.7065277099609 L -3474.061279296875 137.7065277099609 C -3468.8525390625 137.7065277099609 -3463.95556640625 139.73486328125 -3460.2724609375 143.4179077148438 C -3456.589599609375 147.1010284423828 -3454.561279296875 151.9979400634766 -3454.561279296875 157.2066192626953 L -3454.561279296875 254.0756072998047 L -3258.64453125 254.0756072998047 M -3258.64453125 261.0756225585938 L -3461.561279296875 261.0756225585938 L -3461.561279296875 157.2066192626953 C -3461.561279296875 153.8675689697266 -3462.861572265625 150.7284851074219 -3465.222412109375 148.3675689697266 C -3467.583251953125 146.0066986083984 -3470.722412109375 144.7065277099609 -3474.061279296875 144.7065277099609 L -3525.752685546875 144.7065277099609 L -3525.752685546875 53.451904296875 C -3525.752685546875 48.76523971557617 -3521.939453125 44.95232009887695 -3517.252197265625 44.95232009887695 L -3345.4921875 44.95232009887695 C -3346.689697265625 48.11098861694336 -3347.637451171875 51.70965576171875 -3348.307861328125 55.64969635009766 C -3348.3125 55.61419677734375 -3348.687255859375 55.57603073120117 -3349.288330078125 55.57603073120117 C -3350.18603515625 55.57603073120117 -3354.912353515625 55.68832015991211 -3359.8115234375 57.90544509887695 C -3362.2431640625 59.00582122802734 -3364.350341796875 60.45656967163086 -3366.074462890625 62.21748733520508 C -3368.139404296875 64.32636260986328 -3369.672119140625 66.90186309814453 -3370.630615234375 69.87240600585938 C -3372.041015625 73.44057464599609 -3372.599609375 77.87853240966797 -3372.20361328125 82.36890411376953 C -3372 84.67752838134766 -3371.551025390625 86.90907287597656 -3370.869140625 89.00157165527344 C -3370.146728515625 91.21932220458984 -3369.1767578125 93.23157501220703 -3367.986083984375 94.98240661621094 C -3366.375732421875 97.35053253173828 -3364.38916015625 99.20269775390625 -3362.0810546875 100.4874496459961 C -3359.5458984375 101.8986968994141 -3356.63330078125 102.6142349243164 -3353.424560546875 102.6142349243164 C -3353.335205078125 102.6142349243164 -3353.246337890625 102.6137390136719 -3353.15625 102.6126098632812 C -3348.43994140625 102.8120727539062 -3335.1142578125 102.9132385253906 -3313.549072265625 102.9132385253906 C -3292.173095703125 102.9132385253906 -3266.7802734375 102.8104019165039 -3250.14404296875 102.7141952514648 L -3250.14404296875 252.5760345458984 C -3250.14404296875 257.2626647949219 -3253.957275390625 261.0756225585938 -3258.64453125 261.0756225585938 Z" stroke="none" fill="#454545"/>
    </g>
    <g id="Ellipse_2" data-name="Ellipse 2" transform="translate(2066.999 3444.442)" fill="none" stroke="#454545" stroke-width="3">
      <ellipse cx="6.289" cy="6.575" rx="6.289" ry="6.575" stroke="none"/>
      <ellipse cx="6.289" cy="6.575" rx="4.789" ry="5.075" fill="none"/>
    </g>
    <g id="Ellipse_3" data-name="Ellipse 3" transform="translate(2083.579 3444.442)" fill="none" stroke="#454545" stroke-width="3">
      <circle cx="6.575" cy="6.575" r="6.575" stroke="none"/>
      <circle cx="6.575" cy="6.575" r="5.075" fill="none"/>
    </g>
    <g id="Ellipse_4" data-name="Ellipse 4" transform="translate(2100.73 3444.442)" fill="none" stroke="#454545" stroke-width="3">
      <ellipse cx="6.861" cy="6.575" rx="6.861" ry="6.575" stroke="none"/>
      <ellipse cx="6.861" cy="6.575" rx="5.361" ry="5.075" fill="none"/>
    </g>
    <g id="Group_17" data-name="Group 17" transform="translate(1355.169 652.242)">
      <g id="Path_5" data-name="Path 5" transform="translate(-986.03 -327)" fill="none" stroke-linecap="square">
        <path d="M1857.523,3162.356c14.567.616,108.13.114,117.014,0s30.314-3.857,29.032-29.585-27.24-26.887-27.24-26.887,5.067-34.013-30.814-44.3-49.663,25.835-49.663,25.835-27.219-8.819-33.48,27.972c-.031-.241-17.492-.752-22.323,14.223C1835.485,3141.163,1839.75,3162.574,1857.523,3162.356Z" stroke="none"/>
        <path d="M 1897.145141601562 3162.656494140625 C 1929.157958984375 3162.656494140625 1968.89892578125 3162.427978515625 1974.536865234375 3162.355712890625 C 1983.42041015625 3162.241943359375 2004.850830078125 3158.49853515625 2003.569091796875 3132.770751953125 C 2002.287109375 3107.043212890625 1976.3291015625 3105.88330078125 1976.3291015625 3105.88330078125 C 1976.3291015625 3105.88330078125 1981.396484375 3071.87060546875 1945.51513671875 3061.5859375 C 1941.045288085938 3060.3046875 1936.913696289062 3059.7431640625 1933.113647460938 3059.7431640625 C 1906.409423828125 3059.7431640625 1895.852294921875 3087.4208984375 1895.852294921875 3087.4208984375 C 1895.852294921875 3087.4208984375 1892.99365234375 3086.494873046875 1888.916870117188 3086.494873046875 C 1880.412231445312 3086.494873046875 1866.604370117188 3090.523681640625 1862.371826171875 3115.393310546875 C 1862.367431640625 3115.359130859375 1862.01171875 3115.319580078125 1861.390747070312 3115.319580078125 C 1857.637817382812 3115.319580078125 1844.194091796875 3116.76708984375 1840.048828125 3129.615966796875 C 1835.508056640625 3141.104248046875 1839.70751953125 3162.35693359375 1857.254516601562 3162.357421875 C 1857.343872070312 3162.357421875 1857.43310546875 3162.35693359375 1857.523193359375 3162.355712890625 C 1862.845336914062 3162.58056640625 1878.7158203125 3162.656494140625 1897.145141601562 3162.656494140625 M 1897.145141601562 3169.656494140625 C 1875.47705078125 3169.656494140625 1862.046752929688 3169.55322265625 1857.2275390625 3169.349365234375 C 1857.219360351562 3169.349365234375 1857.210083007812 3169.349365234375 1857.201904296875 3169.349365234375 C 1848.809936523438 3169.349853515625 1841.59130859375 3165.55126953125 1836.904663085938 3158.6591796875 C 1830.998291015625 3149.9736328125 1829.6142578125 3136.97265625 1833.538940429688 3127.04296875 C 1837.278930664062 3115.409912109375 1847.476318359375 3110.03759765625 1856.63134765625 3108.67724609375 C 1863.232299804688 3082.467529296875 1881.153442382812 3079.494873046875 1888.916870117188 3079.494873046875 C 1889.952514648438 3079.494873046875 1890.93017578125 3079.54296875 1891.832763671875 3079.620361328125 C 1896.814575195312 3070.459228515625 1909.501953125 3052.7431640625 1933.113647460938 3052.7431640625 C 1937.729370117188 3052.7431640625 1942.55078125 3053.454345703125 1947.44384765625 3054.85693359375 C 1975.639038085938 3062.9384765625 1983.292114257812 3085.0302734375 1983.649291992188 3099.95361328125 C 1995.023193359375 3102.795654296875 2009.52783203125 3111.69921875 2010.560424804688 3132.42236328125 C 2011.0966796875 3143.187255859375 2008.276123046875 3151.93798828125 2002.176879882812 3158.431396484375 C 1993.106079101562 3168.08837890625 1979.888305664062 3169.287841796875 1974.62646484375 3169.355224609375 C 1968.982055664062 3169.427490234375 1929.195068359375 3169.656494140625 1897.145141601562 3169.656494140625 Z" stroke="none" fill="#454545"/>
      </g>
    </g>
    <g id="Rectangle_8" data-name="Rectangle 8" transform="translate(2010.513 3530)" fill="none" stroke="#454545" stroke-width="7">
      <rect width="106.939" height="161.808" rx="14" stroke="none"/>
      <rect x="-3.5" y="-3.5" width="113.939" height="168.808" rx="17.5" fill="none"/>
    </g>
    <rect id="Rectangle_10" data-name="Rectangle 10" width="89.702" height="4.556" rx="2.278" transform="translate(2020.931 3678.001)" fill="#d9d9d9"/>
    <g id="Ellipse_42" data-name="Ellipse 42" transform="translate(2051.864 3639.308)" fill="none" stroke="#454545" stroke-width="3">
      <circle cx="13.5" cy="13.5" r="13.5" stroke="none"/>
      <circle cx="13.5" cy="13.5" r="12" fill="none"/>
    </g>
    <line id="Line_5" data-name="Line 5" x2="163" transform="translate(2142.5 3526.5)" fill="none" stroke="#ebebeb" stroke-linecap="round" stroke-width="6"/>
    <line id="Line_6" data-name="Line 6" x2="163" transform="translate(2142.5 3546)" fill="none" stroke="#ebebeb" stroke-linecap="round" stroke-width="6"/>
    <line id="Line_7" data-name="Line 7" x2="89" transform="translate(2142.5 3565.5)" fill="none" stroke="#ebebeb" stroke-linecap="round" stroke-width="6"/>
    <line id="Line_8" data-name="Line 8" x2="89" transform="translate(2142.5 3585)" fill="none" stroke="#ebebeb" stroke-linecap="round" stroke-width="6"/>
    <line id="Line_9" data-name="Line 9" x2="89" transform="translate(2142.5 3604.5)" fill="none" stroke="#ebebeb" stroke-linecap="round" stroke-width="6"/>
  </g>
</svg>
