<svg xmlns="http://www.w3.org/2000/svg" width="460" height="370" viewBox="0 0 460 370">
  <g id="Group_66" data-name="Group 66" transform="translate(-2173 -2066)">
    <rect id="Rectangle_59" data-name="Rectangle 59" width="460" height="370" transform="translate(2173 2066)" fill="none"/>
    <path id="Path_65" data-name="Path 65" d="M25.455,0H73.382L99.955,47.81,73.937,94.761H26.01L0,47.81Z" transform="translate(2408.064 2121.008)" fill="none" stroke="#454545" stroke-linecap="round" stroke-linejoin="round" stroke-width="7"/>
    <path id="Path_72" data-name="Path 72" d="M25.455,0H73.382L99.955,47.81,73.937,94.761H26.01L0,47.81Z" transform="translate(2409.259 2224.947)" fill="none" stroke="#d8d8d8" stroke-linecap="round" stroke-linejoin="round" stroke-width="7"/>
    <path id="Path_70" data-name="Path 70" d="M25.455,0H73.382L99.955,47.81,73.937,94.761H26.01L0,47.81Z" transform="translate(2325.803 2276)" fill="none" stroke="#454545" stroke-linecap="round" stroke-linejoin="round" stroke-width="7"/>
    <path id="Path_71" data-name="Path 71" d="M25.455,0H73.382L99.955,47.81,73.937,94.761H26.01L0,47.81Z" transform="translate(2242.064 2121.008)" fill="none" stroke="#454545" stroke-linecap="round" stroke-linejoin="round" stroke-width="7"/>
    <path id="Path_74" data-name="Path 74" d="M25.455,0H73.382L99.955,47.81,73.937,94.761H26.01L0,47.81Z" transform="translate(2324.828 2173.011)" fill="none" stroke="#454545" stroke-linecap="round" stroke-linejoin="round" stroke-width="7"/>
    <path id="Path_75" data-name="Path 75" d="M25.455,0H73.382L99.955,47.81,73.937,94.761H26.01L0,47.81Z" transform="translate(2492.828 2173.011)" fill="none" stroke="#454545" stroke-linecap="round" stroke-linejoin="round" stroke-width="7"/>
    <path id="Path_67" data-name="Path 67" d="M25.455,0H73.382L99.955,47.81,73.937,94.761H26.01L0,47.81Z" transform="translate(2242.064 2225.732)" fill="none" stroke="#d8d8d8" stroke-linecap="round" stroke-linejoin="round" stroke-width="7"/>
    <text id="W3" transform="translate(2349 2235)" fill="#73c394" font-size="36" font-family="HelveticaNeue-Medium, Helvetica Neue" font-weight="500"><tspan x="0" y="0">W3</tspan></text>
  </g>
</svg>
